<svg xmlns="http://www.w3.org/2000/svg" aria-hidden="true" overflow="hidden" style="position:absolute;width:0;height:0"><defs><symbol id="icon-client1" viewBox="0 0 28 32"><path d="m4.085 0 4.771 4.545-8.857-.004v22.053h23.149v-8.432l4.766 4.541V0H4.084zm18.854 17.629L9.411 4.74h13.528v12.889zm-4.2 5.739H3.663V8.536h1.066v13.828H18.74v1.005zM6.67 30.68l.562-1.155h.462l-.815 1.529v.892h-.42v-.891l-.814-1.529h.464l.562 1.156zm2.071-1.155h.099l.914 2.42h-.438l-.196-.566h-.937l-.195.566h-.437l.911-2.42h.279zm-.444 1.523h.709l-.354-1.027-.354 1.027zm2.925-.402-.041-.052-.011-.015a1.267 1.267 0 0 1-.142-.23l-.003-.008a.58.58 0 0 1-.051-.239v-.001c0-.126.026-.234.078-.325s.128-.162.218-.208l.003-.001a.71.71 0 0 1 .334-.075.64.64 0 0 1 .318.075.524.524 0 0 1 .237.673l.001-.003a.603.603 0 0 1-.116.173 1.198 1.198 0 0 1-.165.146l-.003.002-.168.123.479.565a.94.94 0 0 0 .104-.435v-.018.001h.346c0 .118-.012.229-.035.334a1.04 1.04 0 0 1-.179.403l.002-.003.354.419h-.463l-.141-.165a.933.933 0 0 1-.242.134l-.007.002c-.109.04-.235.063-.367.063h-.009a.916.916 0 0 1-.417-.088.664.664 0 0 1-.271-.24l-.002-.003a.656.656 0 0 1-.095-.343v-.012.001c0-.099.02-.185.061-.259a.805.805 0 0 1 .168-.21c.066-.059.14-.118.225-.178zm.199.244-.05.036a.62.62 0 0 0-.13.136l-.001.002a.407.407 0 0 0-.022.411l-.001-.002a.358.358 0 0 0 .133.137l.002.001c.06.032.13.051.205.051h.013-.001a.62.62 0 0 0 .392-.139l-.002.001-.538-.633zm.095-.442.148-.099a.536.536 0 0 0 .149-.135l.001-.001a.302.302 0 0 0 .045-.159v-.012.001a.24.24 0 0 0-.241-.233h-.014.001-.007a.245.245 0 0 0-.223.142l-.001.002a.34.34 0 0 0 .011.298l-.001-.002c.025.052.06.107.105.165l.027.035zm4.234.71c-.013.158-.058.3-.133.424s-.181.22-.317.291a1.064 1.064 0 0 1-.497.106.89.89 0 0 1-.711-.309c-.085-.1-.151-.22-.196-.361s-.067-.298-.067-.472v-.202c0-.174.022-.332.068-.472l.002-.007c.043-.131.111-.251.197-.353s.19-.178.311-.232c.122-.053.259-.08.411-.08h-.002.033c.167 0 .324.04.457.107l.004.002a.771.771 0 0 1 .305.292l-.003-.005c.076.129.124.275.139.435h-.415a.756.756 0 0 0-.073-.267c-.037-.075-.091-.131-.163-.17s-.167-.06-.283-.06h.001-.014a.55.55 0 0 0-.236.053l-.003.001a.485.485 0 0 0-.176.155c-.048.069-.084.153-.108.254s-.035.214-.035.343v.217c0 .113.012.224.032.32l.001.005a.805.805 0 0 0 .098.249l.001.002a.49.49 0 0 0 .172.163l-.003-.001c.072.038.153.06.24.06h.014-.001l.027.001a.621.621 0 0 0 .262-.057l.002-.001a.381.381 0 0 0 .166-.164l-.002.004a.74.74 0 0 0 .078-.272h.416zm2.309-.356v-.133c0-.182-.024-.347-.073-.49a1.051 1.051 0 0 0-.206-.373l.001.001a.88.88 0 0 0-.312-.232l-.006-.002a1.006 1.006 0 0 0-.409-.082.983.983 0 0 0-.407.082.88.88 0 0 0-.318.234 1.101 1.101 0 0 0-.206.371c-.047.14-.074.301-.074.468v.023-.001.133c0 .183.024.347.074.492.048.143.119.266.21.372l-.001-.001c.09.102.196.18.317.235.123.053.259.08.408.08s.286-.027.409-.08a.873.873 0 0 0 .316-.235c.088-.102.157-.225.204-.37s.072-.309.072-.492zm-.417-.136v.136c0 .136-.014.255-.04.36a.783.783 0 0 1-.115.267l.002-.003a.503.503 0 0 1-.18.16l-.003.001a.54.54 0 0 1-.237.053h-.012.001-.011a.545.545 0 0 1-.239-.055l.003.001a.541.541 0 0 1-.185-.16l-.001-.002a.789.789 0 0 1-.115-.259l-.001-.005a1.405 1.405 0 0 1-.04-.341v-.02.001-.136c0-.135.014-.254.04-.357s.065-.191.115-.261a.5.5 0 0 1 .181-.158l.003-.001a.527.527 0 0 1 .237-.055h.01c.092 0 .174.018.248.054s.134.088.184.16a.72.72 0 0 1 .115.261c.027.104.04.223.04.357z"/></symbol><symbol id="icon-client2" viewBox="0 0 25 32"><path d="M10.532 1.806c.142 0 .294.013.446.026l.044.004.045.003c.762.055 1.506.172 2.134.326V.403l.09.02a13 13 0 0 0-2.339-.378 18.093 18.093 0 0 0-.91-.044h-.267a17.862 17.862 0 0 0-4.51.582l-.127.028A17.91 17.91 0 0 0 .473 2.532v17.475l-.1.051a19.358 19.358 0 0 1 4.666-1.83l-.139.031a19.906 19.906 0 0 1 3.971-.619h.052c.217-.011.433-.017.655-.018v-1.79h-.014c-1.766.023-3.479.263-4.967.661a23.81 23.81 0 0 0-1.731.513l-.623.212V3.592l.266-.128-.104.045a17.335 17.335 0 0 1 6.576-1.696H8.98l.029-.001.028.001c.247-.012.497-.018.741-.018h.28c.129.003.258.006.388.014h.084zm3.101 1.801c.391.03.796.044 1.205.044a19.413 19.413 0 0 0 4.881-.639l-.135.03a19.492 19.492 0 0 0 4.665-1.831l-.101.051v17.163a17.972 17.972 0 0 1-4.664 1.921l-.127.028a17.962 17.962 0 0 1-4.511.581h-.115c-1.177 0-2.319-.147-3.409-.425l.095.021V3.276c.265.062.537.118.814.164.455.077.934.133 1.401.167zm8.734.133-.623.209c-.572.193-1.151.365-1.731.518-1.551.415-3.332.657-5.169.663h-.004c-.406 0-.78-.011-1.141-.034l-.497-.033V19.08l.426.037c.395.035.803.052 1.214.052a16.554 16.554 0 0 0 4.189-.553l-.116.026a16.96 16.96 0 0 0 3.285-1.189l-.102.044.266-.128V3.739zM1.684 25.977a.916.916 0 0 0-.661-.281l-.034.001h.002-.014c-.139 0-.272.028-.393.078l.007-.003a.904.904 0 0 0-.51.512l-.002.006a1.001 1.001 0 0 0-.071.386v2.335c-.006.164.026.328.092.479.055.12.135.226.234.313a.824.824 0 0 0 .32.166c.114.031.231.048.349.048a.985.985 0 0 0 .968-.982v-.261H1.36v.222c0 .07-.013.136-.037.198l.001-.004a.38.38 0 0 1-.089.132.426.426 0 0 1-.255.089.308.308 0 0 1-.286-.125l-.001-.001a.548.548 0 0 1-.082-.289l.001-.024v.001-2.177a.74.74 0 0 1 .075-.349.31.31 0 0 1 .262-.143l.038.002H.986h.012c.107 0 .201.052.26.131l.001.001a.493.493 0 0 1 .101.3v.014-.001.202h.604v-.249c0-.143-.027-.28-.077-.405l.003.007a.955.955 0 0 0-.205-.329zm3.626-.026a1.051 1.051 0 0 0-1.058-.191.965.965 0 0 0-.557.511l-.002.006a1.08 1.08 0 0 0-.089.452v2.239c-.004.158.026.314.089.458a.888.888 0 0 0 .236.313.964.964 0 0 0 .322.197 1.049 1.049 0 0 0 1.059-.198l-.001.001a.948.948 0 0 0 .23-.313c.063-.144.093-.301.089-.458v-2.259c0-.156-.033-.305-.092-.439l.003.007a1.016 1.016 0 0 0-.23-.327zm-.285 3.018.002.035a.398.398 0 0 1-.123.289.446.446 0 0 1-.575 0l.001.001a.398.398 0 0 1-.121-.326v.002-2.239l-.001-.034a.4.4 0 0 1 .123-.289.446.446 0 0 1 .575 0l-.001-.001a.398.398 0 0 1 .121.326v-.002 2.24zm5.047 1v-4.24h-.586l-.771 2.244h-.01l-.777-2.244h-.58v4.239h.606V27.39h.011l.593 1.823h.302l.598-1.823h.01v2.578h.606zm3.441-3.942a.834.834 0 0 0-.342-.232 1.31 1.31 0 0 0-.416-.066h-.024.001-.9v4.24h.604v-1.656h.311c.189.009.376-.031.545-.116a.88.88 0 0 0 .329-.32l.002-.004a1 1 0 0 0 .138-.369c.021-.133.033-.287.033-.444v-.04.002a2.426 2.426 0 0 0-.059-.606.906.906 0 0 0-.223-.39zm-.312 1.292a.538.538 0 0 1-.057.224l.001-.003a.342.342 0 0 1-.154.147l-.002.001a.617.617 0 0 1-.254.054l-.033-.001h.002-.276V26.3h.311l.029-.001c.088 0 .172.02.247.055l-.004-.002a.35.35 0 0 1 .141.154l.001.002a.62.62 0 0 1 .053.236v.282c0 .098.006.201 0 .291H13.2zm3.173-1.59h-.495l-.934 4.24h.604l.177-.911h.823l.178.911h.604l-.958-4.24zm-.557 2.752.297-1.537h.011l.295 1.537h-.604zm4.46-.198h-.011l-.912-2.554h-.581v4.24h.604v-2.55h.012l.923 2.549h.568v-4.239h-.604v2.554zm3.691-2.554-.486 1.686h-.012l-.486-1.686h-.639l.83 2.448v1.791h.604v-1.791l.83-2.447h-.64zM0 31.166h.291v.817h.198v-.817h.289v-.167H0v.168zm2.447-.168-.382.985h.21l.081-.224h.392l.084.224h.215l-.391-.985h-.21zm-.03.595.134-.365.134.365h-.268zm2.449.027h.228v.127a.378.378 0 0 1-.234.083h-.014a.25.25 0 0 1-.195-.094.406.406 0 0 1-.073-.234l.001-.023v.001c0-.219.095-.329.283-.329l.021-.001c.097 0 .178.067.201.157v.001l.194-.038c-.042-.192-.18-.289-.417-.289h-.013a.492.492 0 0 0-.331.127.48.48 0 0 0-.141.38v-.002.023c0 .132.048.254.127.347l-.001-.001c.087.09.209.146.343.146L4.877 32h-.001.016c.155 0 .296-.06.402-.157v-.388h-.426v.166zm2.471-.622h-.199v.985h.689v-.167h-.49v-.817zm2.089 0h-.199v.985h.199v-.985zm2.043.657-.404-.657h-.193v.985h.185v-.643l.396.643h.198v-.985h-.182v.658zm1.846-.106h.49v-.167h-.49v-.215h.527v-.168h-.727v.985h.747v-.167h-.548v-.266zm4.477-.163h-.388v-.388h-.197v.984h.197v-.431h.388v.431h.198v-.985h-.198v.388zm1.857.163h.492v-.167h-.492v-.215h.529v-.168h-.726v.985h.746v-.167h-.548v-.266zm2.519.001c.171-.027.258-.118.258-.274a.23.23 0 0 0-.096-.219h-.001a.555.555 0 0 0-.25-.059l-.04.001h.002-.417v.984h.198v-.412h.055c.039 0 .076.008.109.023l-.002-.001a.201.201 0 0 1 .07.072l.215.313h.236l-.12-.192a.704.704 0 0 0-.215-.235l-.002-.002zm-.199-.137h-.146v-.247h.156a.515.515 0 0 1 .205.024l-.004-.001a.13.13 0 0 1-.009.2.537.537 0 0 1-.164.025l-.039-.001h.002zm2.099.136h.49v-.167h-.49v-.215h.529v-.168h-.729v.985h.747v-.167h-.548v-.266z"/></symbol><symbol id="icon-client3" viewBox="0 0 34 32"><path d="M5.315 31.394c.013 0 .025.003.036.008.012.004.022.01.031.018l.172.162a1.416 1.416 0 0 1-.474.304l-.01.003a1.91 1.91 0 0 1-.688.11h-.036c-.219 0-.429-.038-.624-.107l.013.004a1.426 1.426 0 0 1-.487-.291l.001.001a1.295 1.295 0 0 1-.311-.441l-.003-.008a1.444 1.444 0 0 1-.11-.559v-.018.001-.019c0-.203.044-.395.122-.568l-.003.009c.075-.167.189-.32.334-.449.146-.125.318-.225.506-.29l.011-.003c.192-.065.414-.103.644-.103h.023-.001a1.84 1.84 0 0 1 .618.094c.171.064.328.151.464.26l-.144.173a.134.134 0 0 1-.036.031h-.001a.094.094 0 0 1-.05.014h-.009a.133.133 0 0 1-.063-.019h.001l-.078-.046-.107-.059a1.2 1.2 0 0 0-.333-.103l-.007-.001a1.438 1.438 0 0 0-.235-.018h-.023.001-.017c-.165 0-.324.028-.471.08l.01-.003c-.145.05-.269.124-.376.218l.001-.001c-.108.101-.19.219-.244.347-.056.13-.088.282-.088.441v.016-.001.017c0 .161.032.314.091.454l-.003-.008a.992.992 0 0 0 .59.556l.007.002c.14.05.291.075.443.073.088.002.176-.004.263-.015.219-.022.414-.108.571-.239l-.002.001a.137.137 0 0 1 .082-.03zm4.976-.815c.003.195-.037.39-.116.573a1.26 1.26 0 0 1-.323.444l-.001.001a1.506 1.506 0 0 1-.509.291 2.151 2.151 0 0 1-1.325-.004l.015.004a1.524 1.524 0 0 1-.509-.294l.002.002a1.311 1.311 0 0 1-.324-.441l-.003-.008a1.468 1.468 0 0 1 .003-1.157l-.004.01c.073-.167.185-.32.328-.451.144-.123.317-.219.507-.281.421-.14.888-.14 1.31 0a1.5 1.5 0 0 1 .508.293c.272.243.442.594.442.985v.036-.002zm-.452 0a1.176 1.176 0 0 0-.081-.46.952.952 0 0 0-.588-.559l-.007-.002a1.539 1.539 0 0 0-.963.003l.011-.003a1.038 1.038 0 0 0-.365.218l.001-.001a.925.925 0 0 0-.23.337l-.002.006c-.109.3-.109.621 0 .921a.935.935 0 0 0 .233.344c.101.094.226.168.365.215.307.098.645.098.952 0 .138-.048.263-.122.364-.215a.962.962 0 0 0 .231-.344c.058-.148.086-.304.081-.46zm3.848.484.044.103a2.5 2.5 0 0 1 .106-.204l1.101-1.709c.022-.03.041-.048.062-.055a.283.283 0 0 1 .074-.009h.018-.001.325v2.781h-.386v-2.131a.683.683 0 0 1 0-.098v.002l-1.107 1.733a.155.155 0 0 1-.064.063h-.001a.191.191 0 0 1-.093.023H13.7a.199.199 0 0 1-.094-.024h.001a.16.16 0 0 1-.064-.062v-.001l-1.139-1.745v2.232h-.373v-2.775h.339c.027 0 .053.004.078.01h-.002a.123.123 0 0 1 .06.052v.001l1.124 1.712a.585.585 0 0 1 .057.1zm4.143-.139v1.041h-.431v-2.777h.96c.182-.003.363.017.537.061.14.034.268.092.379.172a.729.729 0 0 1 .214.269l.002.004a.81.81 0 0 1 .073.355v.012a.773.773 0 0 1-.31.619l-.002.001a1.09 1.09 0 0 1-.375.182l-.008.002a1.877 1.877 0 0 1-.518.064l-.521-.008zm0-.298h.521c.113.001.226-.013.333-.043a.716.716 0 0 0 .244-.121l-.002.001a.525.525 0 0 0 .198-.411v-.007l.001-.028a.453.453 0 0 0-.046-.201l.001.003a.527.527 0 0 0-.15-.189l-.001-.001a.929.929 0 0 0-.582-.149h.003-.521v1.145zm5.791 1.344H23.274a.169.169 0 0 1-.089-.026h.001a.17.17 0 0 1-.056-.063v-.001l-.293-.672h-1.472l-.304.671a.153.153 0 0 1-.053.062h-.001a.161.161 0 0 1-.092.028H20.57l1.293-2.781h.448l1.31 2.781zm-2.133-1.033h1.215l-.513-1.132a1.598 1.598 0 0 1-.094-.249l-.003-.013-.049.145a1.664 1.664 0 0 1-.047.117l-.509 1.132zm3.995-1.736a.185.185 0 0 1 .064.05l1.886 2.096v-2.159h.386v2.781h-.224a.222.222 0 0 1-.082-.016l.001.001a.256.256 0 0 1-.069-.052l-1.883-2.095a.683.683 0 0 1 0 .098v-.002 2.067h-.386v-2.781h.228a.206.206 0 0 1 .078.012zm5.51 1.663v1.104h-.431v-1.104l-1.191-1.675h.396c.031 0 .059.009.084.024h-.001a.261.261 0 0 1 .058.062l.745 1.081c.051.071.095.152.129.239l.003.007.056-.119a1.07 1.07 0 0 1 .073-.127l.735-1.088a.281.281 0 0 1 .055-.059h.001a.146.146 0 0 1 .085-.027h.398l-1.194 1.683zm-17.519-6.343c.187.02.377.037.569.052 2.907-1.111 5.366-2.929 7.07-5.229s2.577-4.975 2.51-7.696L20.42 8.911c.651 2.896.347 5.89-.88 8.648-1.227 2.756-3.327 5.167-6.066 6.962z"/><path d="m12.329 24.393.086.015c2.927-1.789 5.159-4.286 6.406-7.17s1.454-6.021.592-9.006l-4.564-3.899c1.846 3.205 2.589 6.791 2.142 10.341s-2.064 6.922-4.663 9.719zm15.476-9.531c-.775 2.989-2.658 5.685-5.369 7.688a16.877 16.877 0 0 1-2.453 1.519l-.098.045c2.207-.554 4.236-1.534 5.93-2.864s3.008-2.975 3.84-4.808l-1.85-1.58z"/><path d="m27.079 14.422-2.635-2.251c-.051 2.567-.905 5.075-2.473 7.264s-3.796 3.98-6.448 5.185h.013c.591 0 1.182-.03 1.769-.09 2.48-.865 4.67-2.24 6.375-4.004s2.874-3.861 3.4-6.103zM12.711 2.69 9.569 0c-2.81.928-5.227 2.558-6.934 4.68C.927 6.801.008 9.311 0 11.886c.01 2.843 1.131 5.604 3.184 7.842s4.92 3.828 8.15 4.518c2.883-3.001 4.571-6.71 4.819-10.587s-.958-7.719-3.442-10.971zm21.63 11.318c-.012-3.375-1.585-6.608-4.379-8.994-2.792-2.386-6.576-3.731-10.526-3.741h-.034c-1.896 0-3.719.31-5.422.883l.12-.035 19.245 16.443c.627-1.338.993-2.905.995-4.557v-.001z"/></symbol><symbol id="icon-client4" viewBox="0 0 66 32"><path d="M10.207 9.77h-.002c-1.862 0-3.371 1.361-3.371 3.04v.002c0 1.679 1.509 3.04 3.371 3.04h.002c1.862 0 3.371-1.361 3.371-3.04v-.002c0-1.679-1.509-3.04-3.371-3.04zM35.092 8.798c-.005-2.332-1.035-4.567-2.863-6.215S27.922.005 25.336 0c-2.587.004-5.066.932-6.896 2.582s-2.86 3.884-2.865 6.217v12.858s19.515-1.96 19.517-12.856v-.002zM0 25.877c.005 1.622.721 3.177 1.994 4.325s2.996 1.794 4.796 1.799c1.799-.005 3.523-.651 4.795-1.798s1.989-2.701 1.994-4.323v-8.947S0 18.298 0 25.878zm6.789 1.603c-.352 0-.695-.094-.988-.27s-.52-.427-.655-.719c-.135-.293-.17-.615-.101-.926s.238-.597.487-.821c.249-.224.565-.377.91-.439s.702-.03 1.027.091c.325.121.603.327.798.59s.3.574.3.891c.001.211-.044.42-.133.615s-.22.373-.385.522c-.165.15-.362.268-.578.349s-.448.123-.682.123v-.006zM19.207 24.597v3.329h-.686v-3.329h.686zm1.326 1.422v.535h-1.514v-.535h1.514zm.16-1.422v.537h-1.674v-.537h1.674zm3.133 1.587v.158c0 .253-.034.48-.103.681s-.165.373-.29.514a1.25 1.25 0 0 1-.448.322 1.423 1.423 0 0 1-.574.112c-.209 0-.4-.037-.574-.112a1.29 1.29 0 0 1-.448-.322 1.5 1.5 0 0 1-.295-.514 2.09 2.09 0 0 1-.103-.681v-.158c0-.255.034-.482.103-.681.069-.201.165-.373.29-.514.127-.142.276-.25.448-.325.174-.075.365-.112.574-.112.21 0 .402.037.574.112.174.075.323.183.448.325.127.142.224.313.293.514.07.2.105.427.105.681zm-.693.158v-.162c0-.177-.016-.332-.048-.466s-.079-.247-.142-.338a.623.623 0 0 0-.538-.277.614.614 0 0 0-.535.277c-.061.091-.107.204-.139.338s-.048.29-.048.466v.162c0 .175.016.331.048.466.032.134.079.248.142.341.063.091.139.161.229.208s.193.071.309.071c.116 0 .219-.024.309-.071s.165-.117.226-.208c.061-.093.107-.207.139-.341.032-.136.048-.291.048-.466zm2.92.713a.447.447 0 0 0-.027-.16.308.308 0 0 0-.096-.133c-.047-.041-.114-.082-.199-.121s-.196-.081-.332-.123a4.267 4.267 0 0 1-.43-.165 1.775 1.775 0 0 1-.357-.213.952.952 0 0 1-.242-.286.786.786 0 0 1-.087-.377c0-.139.031-.265.091-.377a.872.872 0 0 1 .256-.293c.11-.082.239-.146.389-.19.151-.044.316-.066.496-.066.245 0 .46.044.642.133s.325.21.425.364c.102.154.153.33.153.528h-.681a.513.513 0 0 0-.062-.256.421.421 0 0 0-.183-.176.648.648 0 0 0-.306-.064.7.7 0 0 0-.297.055.393.393 0 0 0-.178.144.351.351 0 0 0-.059.201c0 .056.014.107.041.153.029.046.072.088.128.128s.126.077.208.112.178.069.286.103c.181.055.341.117.478.185.139.069.255.146.348.231a.851.851 0 0 1 .281.658c0 .145-.028.274-.085.389s-.138.211-.245.29c-.107.079-.234.139-.382.181s-.313.062-.496.062c-.165 0-.327-.021-.487-.064a1.486 1.486 0 0 1-.437-.199c-.13-.088-.233-.201-.311-.338s-.117-.3-.117-.487h.688c0 .104.016.191.048.263s.077.13.135.174c.059.044.13.076.21.096.082.02.172.03.27.03a.745.745 0 0 0 .293-.05.36.36 0 0 0 .228-.34zm2.641-2.458v3.329h-.684v-3.329h.684zm1.024 0v.537h-2.716v-.537h2.716zm2.625 2.794v.535h-1.772v-.535h1.772zm-1.548-2.794v3.329h-.686v-3.329h.686zm1.317 1.356v.521h-1.541v-.521h1.541zm.229-1.356v.537h-1.77v-.537h1.77zm.402 0h1.242c.255 0 .473.038.656.114.184.076.326.189.425.338s.149.333.149.551c0 .178-.03.332-.091.46a.856.856 0 0 1-.254.318 1.295 1.295 0 0 1-.382.201l-.217.114h-1.079l-.005-.535h.803c.12 0 .22-.021.3-.064s.139-.102.178-.178a.552.552 0 0 0 .062-.265c0-.107-.02-.199-.059-.277s-.1-.137-.181-.178a.669.669 0 0 0-.304-.062h-.556v2.792h-.686v-3.329zm1.862 3.329-.759-1.484.725-.005.768 1.457v.032h-.734zm3.601-1.186h-.848v-.535h.848a.69.69 0 0 0 .32-.064c.082-.044.143-.105.181-.183s.057-.165.057-.263c0-.099-.019-.191-.057-.277s-.098-.154-.181-.206-.189-.078-.32-.078h-.611v2.792h-.686v-3.329h1.297c.261 0 .484.047.67.142.187.093.331.222.43.386s.149.353.149.565c0 .215-.05.401-.149.558s-.242.278-.43.364a1.602 1.602 0 0 1-.67.128zm3.956.651v.535H40.39v-.535h1.772zm-1.548-2.794v3.329h-.686v-3.329h.686zm1.317 1.356v.521H40.39v-.521h1.541zm.229-1.356v.537h-1.77v-.537h1.77zm1.936 0v3.329h-.684v-3.329h.684zm1.025 0v.537h-2.716v-.537h2.716zm2.625 2.794v.535h-1.772v-.535h1.772zm-1.548-2.794v3.329h-.686v-3.329h.686zm1.317 1.356v.521h-1.541v-.521h1.541zm.229-1.356v.537h-1.77v-.537h1.77zm.402 0h1.242c.255 0 .473.038.656.114.184.076.326.189.425.338s.149.333.149.551c0 .178-.031.332-.091.46a.856.856 0 0 1-.254.318 1.295 1.295 0 0 1-.382.201l-.217.114h-1.079l-.005-.535h.803c.12 0 .22-.021.3-.064s.139-.102.178-.178a.552.552 0 0 0 .062-.265c0-.107-.02-.199-.059-.277s-.1-.137-.181-.178a.669.669 0 0 0-.304-.062h-.556v2.792h-.686v-3.329zm1.861 3.329-.759-1.484.725-.005.768 1.457v.032h-.734zm2.872-.871a.447.447 0 0 0-.027-.16.308.308 0 0 0-.096-.133c-.047-.041-.114-.082-.199-.121s-.196-.081-.332-.123a4.267 4.267 0 0 1-.43-.165 1.775 1.775 0 0 1-.357-.213.952.952 0 0 1-.242-.286.786.786 0 0 1-.087-.377c0-.139.03-.265.091-.377a.872.872 0 0 1 .256-.293c.11-.082.239-.146.389-.19.151-.044.316-.066.496-.066.245 0 .46.044.642.133s.325.21.425.364c.102.154.153.33.153.528h-.681a.513.513 0 0 0-.062-.256.421.421 0 0 0-.183-.176.648.648 0 0 0-.306-.064.7.7 0 0 0-.297.055.393.393 0 0 0-.178.144.351.351 0 0 0-.059.201c0 .056.014.107.041.153.029.046.072.088.128.128s.126.077.208.112.178.069.286.103c.181.055.341.117.478.185.139.069.255.146.348.231a.851.851 0 0 1 .281.658c0 .145-.028.274-.085.389s-.138.211-.245.29c-.107.079-.234.139-.382.181s-.313.062-.496.062c-.165 0-.327-.021-.487-.064a1.486 1.486 0 0 1-.437-.199c-.13-.088-.233-.201-.311-.338s-.117-.3-.117-.487h.688c0 .104.016.191.048.263s.077.13.135.174c.059.044.13.076.21.096.082.02.172.03.27.03a.745.745 0 0 0 .293-.05.36.36 0 0 0 .228-.34z"/></symbol><symbol id="icon-client5" viewBox="0 0 44 32"><path d="M3.334 26.694c.17.191.262.429.257.673.008.159-.023.319-.092.466s-.174.278-.307.384a1.847 1.847 0 0 1-1.163.31h.006H0v-4.266h1.993a1.836 1.836 0 0 1 1.111.287l-.007-.004c.129.097.231.22.298.358s.097.289.089.44a.919.919 0 0 1-.232.652 1.107 1.107 0 0 1-.599.333l-.007.001c.27.045.513.174.687.365zM.947 26.05h.852a.873.873 0 0 0 .541-.141.516.516 0 0 0 .145-.186l.001-.003a.447.447 0 0 0 .039-.185l-.002-.045v.002l.001-.036a.477.477 0 0 0-.041-.193l.001.003a.54.54 0 0 0-.141-.19l-.001-.001a.888.888 0 0 0-.562-.143h.003-.839v1.119zm1.477 1.637a.547.547 0 0 0 .156-.192l.001-.003a.475.475 0 0 0 .046-.205l-.001-.035v.002l.001-.03a.494.494 0 0 0-.049-.214l.001.003a.546.546 0 0 0-.159-.196l-.001-.001a.941.941 0 0 0-.522-.156l-.059.002h.003-.895v1.174h.905a.978.978 0 0 0 .572-.148zm4.984.842-1.109-1.667h-.417v1.667h-.953v-4.266h1.805a1.904 1.904 0 0 1 1.262.367l-.005-.004c.253.232.405.537.429.861s-.08.644-.295.904c-.223.23-.527.383-.861.434l1.181 1.704H7.408zM5.882 26.28h.78c.542 0 .813-.216.813-.646l.001-.035a.572.572 0 0 0-.046-.227l.001.004a.626.626 0 0 0-.155-.221.9.9 0 0 0-.617-.173h.003-.79l.01 1.298zm6.739 1.39H10.72l-.336.858h-1l1.746-4.218h1.081l1.738 4.218h-1l-.328-.858zm-.254-.646-.695-1.801-.694 1.8h1.389zm6.779 1.505H18.2l-2.123-2.901v2.901h-.945v-4.266h.945l2.122 2.918v-2.918h.947v4.266zm5.404-1.022a1.98 1.98 0 0 1-.844.748l-.012.005a3.04 3.04 0 0 1-1.331.269h-1.686v-4.266h1.686l.078-.001c.453 0 .884.097 1.272.271l-.02-.008c.362.165.661.424.856.744.195.347.296.73.296 1.119a2.276 2.276 0 0 1-.302 1.13l.006-.011zm-1.084-.102c.256-.263.416-.622.419-1.018v-.001a1.468 1.468 0 0 0-.419-1.018 1.747 1.747 0 0 0-1.19-.362h.005-.657v2.762h.657a1.76 1.76 0 0 0 1.19-.366l-.004.003zM13.213.534s12.221 4.153 11.962 10.163v10.166s-12.211-4.156-11.958-10.166L13.213.534zm22.849 17.949c2.308-1.43 4.977-2.317 7.764-2.576v-3.183c-3.211 1.114-5.935 3.134-7.764 5.758z"/><path d="M34.675 19.442c1.888-3.425 5.164-6.067 9.151-7.384v-9.17S26.422 8.805 26.79 17.364v14.474s.776-.264 1.996-.761c0-.463 0-.929.056-1.398.36-3.974 2.458-7.656 5.834-10.237z"/><path d="M33.02 24.819c.103-1.095.318-2.101.637-3.06l-.028.096c-2.102 2.229-3.375 4.995-3.64 7.909-.025.275-.039.55-.046.833a49.032 49.032 0 0 0 3.636-1.726l-.288.139a13.192 13.192 0 0 1-.328-2.958c0-.434.02-.864.06-1.287l-.004.054zm.692.052a12.983 12.983 0 0 0 .231 3.88l-.015-.085c4.755-2.561 10.097-6.518 9.891-11.302v-.417c-3.397.343-6.575 1.68-9.047 3.806a12.764 12.764 0 0 0-1.056 4.067l-.004.051z"/></symbol><symbol id="icon-client6" viewBox="0 0 59 32"><path d="M30.588 15.682a1.685 1.685 0 0 1-.346-1.138v-1.65c0-.506.115-.89.344-1.153s.624-.394 1.183-.393c.525 0 .898.112 1.119.336.24.286.358.635.331.987v.388h-.94v-.393a2.056 2.056 0 0 0-.027-.384.373.373 0 0 0-.134-.228.541.541 0 0 0-.34-.089.577.577 0 0 0-.358.094.443.443 0 0 0-.156.252 1.93 1.93 0 0 0-.037.408v2.003c-.015.193.027.387.121.562.047.06.112.107.188.136s.16.041.242.032c.12.009.24-.024.333-.091a.4.4 0 0 0 .14-.243 2.16 2.16 0 0 0 .029-.401v-.406h.94v.371c.026.367-.088.732-.325 1.038-.216.245-.584.368-1.125.368s-.949-.131-1.181-.403zM34.501 15.699c-.237-.257-.356-.631-.356-1.127v-1.736c0-.49.119-.861.356-1.113s.634-.377 1.191-.376c.553 0 .947.125 1.185.376.237.252.358.623.358 1.113v1.736c0 .49-.121.866-.362 1.125s-.634.388-1.181.388-.951-.131-1.191-.386zm1.628-.417a.968.968 0 0 0 .113-.514v-2.125a.943.943 0 0 0-.111-.504c-.048-.061-.114-.109-.192-.138s-.164-.04-.248-.03c-.084-.01-.17 0-.248.03s-.145.077-.193.138a.922.922 0 0 0-.113.504v2.136a.95.95 0 0 0 .113.514c.055.054.122.098.198.127a.68.68 0 0 0 .484 0 .59.59 0 0 0 .198-.127v-.01zM38.364 11.398h1.012l.761 3.203.778-3.203h.984l.099 4.623h-.728l-.078-3.213-.751 3.213h-.584l-.778-3.225-.072 3.225h-.735l.091-4.623zM43.133 11.398h1.576c.908 0 1.362.438 1.362 1.313 0 .838-.478 1.257-1.434 1.256H44.1v2.055h-.973l.006-4.623zm1.346 1.976c.096.011.194.003.286-.022s.177-.067.249-.124a.744.744 0 0 0 .14-.522 1.457 1.457 0 0 0-.047-.42c-.014-.046-.038-.089-.072-.127s-.075-.069-.123-.093a1.012 1.012 0 0 0-.434-.074h-.377v1.382h.377zM47.474 11.398h1.045l1.072 4.623h-.907l-.212-1.066h-.932l-.218 1.066h-.92l1.072-4.623zm.893 3.021-.364-1.941-.364 1.941h.728zM50.456 11.398h.681l1.304 2.637v-2.637h.807v4.623H52.6l-1.311-2.753v2.753h-.835l.002-4.623zM55.139 14.258l-1.084-2.854h.912l.661 1.833.621-1.833h.893l-1.07 2.854v1.763h-.934v-1.763zM32.09 18.042v.242h-.794v1.879h-.333v-1.879h-.798v-.242h1.924zM34.578 20.163h-.257a.119.119 0 0 1-.072-.02.113.113 0 0 1-.043-.049l-.23-.504h-1.101l-.23.504a.136.136 0 0 1-.035.057.119.119 0 0 1-.072.02h-.257l.973-2.12h.339l.984 2.112zm-1.61-.788h.918l-.389-.863a1.447 1.447 0 0 1-.072-.2l-.037.113-.035.089-.385.861zM36.256 19.954c.061.003.122.003.183 0 .053-.005.105-.013.156-.025.048-.01.094-.023.14-.039.043-.015.086-.034.13-.052v-.477h-.389c-.01 0-.019-.001-.028-.004a.07.07 0 0 1-.039-.03.038.038 0 0 1-.005-.021v-.163h.755v.813a1.497 1.497 0 0 1-.654.217 2.687 2.687 0 0 1-.284.013 1.497 1.497 0 0 1-.49-.079 1.178 1.178 0 0 1-.389-.222 1.028 1.028 0 0 1-.251-.336 1.07 1.07 0 0 1-.09-.44 1.099 1.099 0 0 1 .088-.443.97.97 0 0 1 .251-.336 1.19 1.19 0 0 1 .389-.22c.167-.054.343-.081.521-.079.091 0 .181.006.27.018a1.303 1.303 0 0 1 .427.138c.06.033.116.07.169.111l-.093.131c-.007.012-.018.022-.032.029s-.029.011-.044.011a.123.123 0 0 1-.06-.017 1.127 1.127 0 0 1-.095-.05.947.947 0 0 0-.13-.057 1.208 1.208 0 0 0-.426-.065 1.165 1.165 0 0 0-.376.059.835.835 0 0 0-.286.168.734.734 0 0 0-.181.264.99.99 0 0 0 0 .707c.043.1.109.191.195.267.08.073.177.13.284.168.124.037.255.051.385.042zM39.357 19.921h1.062v.242h-1.387v-2.12h.333l-.008 1.879zM41.524 20.162h-.333v-2.12h.333v2.12zM42.761 18.052c.02.01.037.023.051.039l1.422 1.598a.482.482 0 0 1 0-.076V18.033h.29v2.129h-.167a.146.146 0 0 1-.072-.012.211.211 0 0 1-.053-.04l-1.42-1.597v1.649h-.278v-2.12h.173a.14.14 0 0 1 .054.01zM46.974 18.042v.233h-1.179v.7h.955v.225h-.955v.724h1.179v.233h-1.521v-2.115h1.521zM12.112 4.948l14.772 3.619V21.25l-14.772-3.618V4.947zm-.948-1.081v14.382l16.666 4.084V7.953L11.164 3.867z"/><path d="M20.096 29.01 3.429 24.922V10.541l16.667 4.086v14.382z"/><path d="m11.44 4.785 14.58 3.574-6.2 5.352-14.582-3.576 6.202-5.35zm-.276-.918-7.735 6.675 16.667 4.086 7.733-6.675-16.666-4.086zM21.034 28.201l6.796-5.866-6.796-1.667V28.2z"/></symbol></defs></svg>